Coordinates
version=1
nRows=34
nColumns=34
inDegrees=no

Units are S.I. units (second, meters, Newtons, ...)
If the header above contains a line with 'inDegrees', this indicates whether rotational values are in degrees (yes) or radians (no).

endheader
time	pelvis_tilt	pelvis_list	pelvis_rotation	pelvis_tx	pelvis_ty	pelvis_tz	hip_flexion_r	hip_adduction_r	hip_rotation_r	knee_angle_r	ankle_angle_r	subtalar_angle_r	mtp_angle_r	hip_flexion_l	hip_adduction_l	hip_rotation_l	knee_angle_l	ankle_angle_l	subtalar_angle_l	mtp_angle_l	lumbar_extension	lumbar_bending	lumbar_rotation	arm_flex_r	arm_add_r	arm_rot_r	elbow_flex_r	pro_sup_r	arm_flex_l	arm_add_l	arm_rot_l	elbow_flex_l	pro_sup_l
0.8	0.305811	0.107133	-0.0524706	0.942916	0.926919	-0.185091	0.270694	-0.196157	-0.0472086	1.07755	-0.0270407	-0.212039	-0.0300855	-0.32889	0.168584	-0.0373992	0.126717	0.223543	-0.00785999	-0.0304252	-0.599318	-0.112486	-0.0363791	0.160985	-0.150982	0.0655927	0.386771	1.20461	0.299348	-0.220397	0.147311	0.574429	1.24337
0.81	0.306067	0.101997	-0.0448776	0.95545	0.927013	-0.185373	0.276646	-0.190306	-0.0634166	1.02074	-0.0194889	-0.20951	-0.0300856	-0.357485	0.1622	-0.0231922	0.105393	0.224072	-0.00847655	-0.0304255	-0.602469	-0.102133	-0.0443541	0.154647	-0.151742	0.0623319	0.384447	1.20547	0.320272	-0.224099	0.149048	0.60029	1.25625
0.82	0.306746	0.09745	-0.038263	0.968041	0.926838	-0.185522	0.279391	-0.18508	-0.0812552	0.958565	-0.0147	-0.209006	-0.0300856	-0.38739	0.156316	-0.00854757	0.0826965	0.223005	-0.0110416	-0.0304257	-0.6058	-0.0929924	-0.0513521	0.14825	-0.152581	0.0588249	0.382245	1.20635	0.341329	-0.227866	0.15065	0.625637	1.26788
0.83	0.307617	0.0934055	-0.0326505	0.980689	0.926384	-0.185536	0.279204	-0.179955	-0.10051	0.891184	-0.0122829	-0.209563	-0.0300856	-0.417884	0.150781	0.00621054	0.0594842	0.220625	-0.015382	-0.0304259	-0.609093	-0.0849414	-0.0573132	0.141891	-0.153432	0.0551325	0.380039	1.20683	0.362496	-0.231634	0.152331	0.650268	1.27831
0.84	0.308337	0.0897888	-0.0279595	0.993392	0.925636	-0.185424	0.27654	-0.174461	-0.120734	0.818848	-0.0115572	-0.209881	-0.0300856	-0.447908	0.14548	0.0206216	0.0369036	0.217423	-0.02108	-0.0304262	-0.612027	-0.0778546	-0.0622646	0.135675	-0.154222	0.0512938	0.377714	1.20661	0.383763	-0.235346	0.15425	0.674002	1.28766
0.85	0.308465	0.0865529	-0.0240275	1.00614	0.924574	-0.185193	0.272	-0.16823	-0.141173	0.741966	-0.0116365	-0.208498	-0.0300857	-0.476191	0.140361	0.0341288	0.016263	0.214067	-0.0275046	-0.0304264	-0.614222	-0.0716239	-0.0663114	0.129714	-0.154877	0.0473441	0.37516	1.20553	0.405131	-0.238948	0.156515	0.696685	1.29608
0.86	0.307528	0.0836928	-0.0206423	1.01892	0.923188	-0.184856	0.266269	-0.161038	-0.160746	0.661185	-0.0115562	-0.204005	-0.0300857	-0.501441	0.135432	0.0461598	-0.00115832	0.211312	-0.0339049	-0.0304266	-0.615295	-0.0661636	-0.0696206	0.12412	-0.155327	0.0433294	0.37228	1.20359	0.426592	-0.24239	0.159185	0.718209	1.30366
0.87	0.305106	0.0812411	-0.017576	1.03174	0.921474	-0.184434	0.260036	-0.152831	-0.178079	0.577477	-0.0104188	-0.195259	-0.0300857	-0.522576	0.130753	0.056234	-0.014328	0.209876	-0.0395533	-0.0304268	-0.614921	-0.0614042	-0.0723976	0.11899	-0.155515	0.0393133	0.368989	1.20091	0.448113	-0.245628	0.162266	0.738508	1.31052
0.88	0.300931	0.0792459	-0.0146178	1.04461	0.919441	-0.183947	0.253911	-0.143734	-0.191622	0.492222	-0.00752304	-0.181564	-0.0300857	-0.538946	0.126405	0.0640437	-0.0226335	0.210315	-0.0438688	-0.0304271	-0.612899	-0.0572805	-0.0748595	0.114399	-0.155408	0.0353761	0.365225	1.19771	0.469606	-0.24862	0.165716	0.757562	1.31672
0.89	0.294971	0.0777471	-0.0116022	1.05756	0.917117	-0.183411	0.248352	-0.134037	-0.199845	0.407263	-0.00244946	-0.162783	-0.0300858	-0.550455	0.122459	0.0694386	-0.0259012	0.212977	-0.0464273	-0.0304273	-0.609205	-0.0537209	-0.0772086	0.110381	-0.155005	0.0316049	0.36095	1.19424	0.490907	-0.251321	0.169444	0.775386	1.32234
0.9	0.287502	0.0767359	-0.00841833	1.07062	0.914552	-0.182836	0.24359	-0.124151	-0.201502	0.324867	0.00490214	-0.139343	-0.0300858	-0.557552	0.118915	0.07234	-0.0242814	0.218012	-0.0468887	-0.0304275	-0.604043	-0.0506162	-0.0796108	0.106923	-0.154339	0.0280784	0.356159	1.19074	0.511766	-0.253687	0.173315	0.792018	1.32745
0.91	0.279093	0.0761363	-0.00501048	1.08383	0.911821	-0.182227	0.23962	-0.114535	-0.195889	0.247615	0.0143135	-0.112177	-0.0300858	-0.561076	0.115676	0.0726184	-0.0180817	0.225422	-0.0448744	-0.0304278	-0.597829	-0.0478131	-0.08218	0.103963	-0.153475	0.0248509	0.350875	1.18736	0.531846	-0.255665	0.177161	0.807517	1.3321
0.92	0.2705	0.0757978	-0.00135474	1.09723	0.909016	-0.18158	0.236278	-0.10562	-0.183046	0.178177	0.0252714	-0.0826041	-0.0300858	-0.562057	0.112529	0.0699848	-0.00758029	0.235137	-0.0398593	-0.030428	-0.591126	-0.0451132	-0.0849745	0.101404	-0.152496	0.0219407	0.345154	1.1842	0.550765	-0.257203	0.180803	0.821953	1.33639
0.93	0.262539	0.0755001	0.00254886	1.11085	0.90624	-0.180889	0.233306	-0.0977061	-0.163844	0.119041	0.0369949	-0.0521959	-0.0300859	-0.561548	0.109139	0.0639424	0.00709093	0.247043	-0.03112	-0.0304282	-0.584559	-0.0422825	-0.0879896	0.0991174	-0.151491	0.0193252	0.339081	1.18126	0.568116	-0.258251	0.184068	0.835414	1.34037
0.94	0.255968	0.0749748	0.00667711	1.12475	0.903591	-0.180146	0.230386	-0.0908703	-0.139932	0.0722096	0.0484565	-0.0226365	-0.0300859	-0.560495	0.105042	0.0538215	0.0259735	0.260974	-0.0177724	-0.0304285	-0.578727	-0.039052	-0.0911489	0.0969541	-0.150539	0.0169423	0.332764	1.17849	0.583492	-0.258768	0.186806	0.847995	1.34414
0.95	0.25142	0.0739316	0.0109857	1.13894	0.90114	-0.179347	0.227158	-0.0849042	-0.113538	0.0389151	0.0584083	0.00439078	-0.0300859	-0.559662	0.0996622	0.038902	0.0492237	0.276641	0.00108223	-0.0304287	-0.574125	-0.0351199	-0.0943019	0.0947513	-0.149704	0.0146985	0.326325	1.17579	0.596503	-0.258729	0.188892	0.859808	1.34781
0.96	0.249345	0.0720748	0.0154145	1.15343	0.898931	-0.178489	0.223252	-0.0793201	-0.0871291	0.0194395	0.0654365	0.0272673	-0.0300859	-0.55959	0.0923459	0.0186052	0.0769946	0.293519	0.02611	-0.0304289	-0.571079	-0.030166	-0.0972342	0.0923479	-0.149027	0.0124838	0.319889	1.17307	0.606804	-0.258122	0.190225	0.870974	1.35151
0.97	0.249991	0.0690667	0.0199065	1.16823	0.897046	-0.177565	0.218349	-0.0734399	-0.0630053	0.0131094	0.0680772	0.0444638	-0.030086	-0.560565	0.0824489	-0.00729531	0.109314	0.310715	0.057437	-0.0304292	-0.569713	-0.0239025	-0.0996903	0.089609	-0.148527	0.0101898	0.313571	1.17021	0.614115	-0.256952	0.190727	0.881612	1.35544
0.98	0.253338	0.0646339	0.024382	1.18335	0.895512	-0.176567	0.212259	-0.0665079	-0.042924	0.0185184	0.0650121	0.0545716	-0.030086	-0.562624	0.0694152	-0.0385049	0.146059	0.326869	0.0943486	-0.0304294	-0.569968	-0.0160783	-0.101401	0.0864498	-0.148205	0.00772853	0.307472	1.16714	0.618251	-0.255235	0.190335	0.891829	1.35988
0.99	0.259129	0.0585609	0.0287429	1.19878	0.894339	-0.175477	0.204972	-0.05784	-0.0278452	0.0337704	0.0553289	0.0563961	-0.030086	-0.565525	0.0528896	-0.0741335	0.186992	0.340121	0.135094	-0.0304296	-0.571623	-0.00654072	-0.102113	0.0828586	-0.148053	0.00504822	0.301664	1.16381	0.619135	-0.252988	0.18899	0.901692	1.36513
1	0.266884	0.0507372	0.0328683	1.21449	0.893509	-0.17428	0.196649	-0.0469392	-0.0178509	0.0566942	0.0387835	0.0491244	-0.030086	-0.568739	0.0327952	-0.112735	0.23182	0.348177	0.176864	-0.0304299	-0.574337	0.00473407	-0.101614	0.0789149	-0.148063	0.00214728	0.296191	1.16022	0.616814	-0.250229	0.186647	0.911211	1.37154
1.01	0.275934	0.0411929	0.0366163	1.2304	0.892991	-0.172965	0.187625	-0.0335777	-0.0122516	0.085075	0.0159941	0.0325381	-0.030086	-0.571427	0.00936527	-0.152459	0.280285	0.348484	0.215983	-0.0304301	-0.577678	0.0176246	-0.0997569	0.074795	-0.148231	-0.000917559	0.291072	1.15641	0.61147	-0.246967	0.183275	0.920318	1.37945
1.02	0.285469	0.0301096	0.0398318	1.24645	0.89274	-0.171529	0.178418	-0.017835	-0.00985894	0.116894	-0.0114919	0.00722685	-0.0300861	-0.572463	-0.0168805	-0.191289	0.332219	0.338502	0.2483	-0.0304303	-0.581143	0.0318693	-0.0964748	0.0707634	-0.148565	-0.00402758	0.286299	1.15246	0.60341	-0.2432	0.178885	0.928869	1.3891
1.03	0.294705	0.0177459	0.0423764	1.26254	0.892716	-0.169977	0.169727	-0.000102461	-0.00935101	0.150483	-0.0413036	-0.0252655	-0.0300861	-0.57048	-0.0451982	-0.22732	0.387551	0.316064	0.269747	-0.0304306	-0.584156	0.047066	-0.0917878	0.0671514	-0.149086	-0.00700542	0.281853	1.1485	0.593053	-0.23892	0.173553	0.936644	1.40058
1.04	0.302762	0.00448142	0.044143	1.27859	0.892873	-0.168325	0.162292	0.0190069	-0.00962041	0.184585	-0.0705379	-0.0624486	-0.0300861	-0.564058	-0.0747522	-0.259015	0.446268	0.279766	0.276984	-0.0304308	-0.586192	0.0627555	-0.0857848	0.0643229	-0.149827	-0.0096266	0.277707	1.14469	0.580895	-0.234119	0.167442	0.943364	1.41373
1.05	0.308847	-0.00925372	0.0450659	1.29451	0.893168	-0.166594	0.156738	0.0387591	-0.00999538	0.21826	-0.0961992	-0.101126	-0.0300861	-0.551925	-0.104742	-0.285375	0.508301	0.229334	0.267974	-0.030431	-0.586824	0.0784876	-0.078613	0.0626279	-0.150824	-0.0116391	0.273839	1.1412	0.567465	-0.228797	0.160807	0.948712	1.42819
1.06	0.312428	-0.0230671	0.0451498	1.31023	0.893573	-0.164808	0.153353	0.0584405	-0.0102552	0.250715	-0.115724	-0.137909	-0.0300862	-0.533207	-0.134496	-0.305971	0.57336	0.165892	0.242383	-0.0304313	-0.585807	0.0938827	-0.0704503	0.0623558	-0.152117	-0.0127893	0.270241	1.1382	0.553277	-0.222968	0.153982	0.952354	1.44338
1.07	0.313377	-0.0366653	0.044482	1.32569	0.894081	-0.16299	0.151877	0.0775076	-0.0104316	0.281131	-0.127486	-0.169939	-0.0300862	-0.50766	-0.163516	-0.320868	0.640796	0.0920659	0.201713	-0.0304315	-0.583169	0.108683	-0.0614781	0.0636934	-0.153737	-0.0128485	0.266929	1.13581	0.538775	-0.216671	0.147337	0.95395	1.45875
1.08	0.311975	-0.0498402	0.0432359	1.34086	0.894709	-0.161169	0.151493	0.0956159	-0.0106545	0.308606	-0.131001	-0.195306	-0.0300862	-0.475736	-0.191422	-0.330409	0.709599	0.0118486	0.149074	-0.0304317	-0.579222	0.122733	-0.0518861	0.0667148	-0.155695	-0.011634	0.263946	1.13408	0.524318	-0.209979	0.141235	0.953183	1.47381
1.09	0.30882	-0.062416	0.0416572	1.35572	0.895488	-0.159372	0.150998	0.112571	-0.0110305	0.332205	-0.126853	-0.213198	-0.0300862	-0.438454	-0.217853	-0.335022	0.77851	-0.0697453	0.0887476	-0.030432	-0.574484	0.135924	-0.0418904	0.0713909	-0.157976	-0.00902022	0.261373	1.13305	0.510176	-0.203	0.135999	0.949786	1.48815
1.1	0.304682	-0.0741949	0.0400315	1.37027	0.896461	-0.157623	0.14905	0.128253	-0.0115658	0.351095	-0.116432	-0.223834	-0.0300863	-0.397161	-0.242388	-0.335092	0.846177	-0.147231	0.0256422	-0.0304322	-0.56957	0.148124	-0.031744	0.0776112	-0.160527	-0.00494227	0.259321	1.13268	0.496539	-0.195881	0.131875	0.943568	1.50148
1.11	0.300361	-0.0849258	0.0386395	1.38453	0.89767	-0.155941	0.144425	0.142553	-0.0121354	0.364695	-0.101579	-0.228239	-0.0300863	-0.353295	-0.264506	-0.330936	0.9113	-0.215329	-0.035283	-0.0304324	-0.565087	0.159137	-0.0217306	0.0852092	-0.16327	0.000610228	0.257928	1.13293	0.483525	-0.188801	0.129023	0.934429	1.51354
1.12	0.296557	-0.0943065	0.0377126	1.39853	0.89915	-0.154339	0.136204	0.155341	-0.0124973	0.372773	-0.0842236	-0.227931	-0.0300863	-0.308191	-0.283609	-0.32284	0.972731	-0.26964	-0.089545	-0.0304327	-0.561535	0.16869	-0.0121421	0.0939868	-0.166102	0.00760601	0.257348	1.13373	0.471191	-0.18196	0.1275	0.922357	1.52415
1.13	0.29379	-0.102015	0.0374002	1.41227	0.900918	-0.152822	0.123878	0.166463	-0.0123379	0.375475	-0.0661053	-0.224604	-0.0300863	-0.262956	-0.299094	-0.311133	1.02954	-0.30715	-0.133537	-0.0304329	-0.559255	0.176465	-0.00324797	0.103736	-0.16892	0.015989	0.257737	1.13502	0.459542	-0.175563	0.127281	0.907419	1.53319
